<svg width="403" height="528" viewBox="0 0 403 528" fill="none" xmlns="http://www.w3.org/2000/svg">
<path fill-rule="evenodd" clip-rule="evenodd" d="M-1.52588e-05 434.073L10.8026 417.473C4.65744 402.326 1.05656 386.125 7.62939e-05 368.868H47.4278L117.843 275.42C111.11 273.036 104.779 270.652 98.849 268.268C74.7705 257.711 53.8603 242.497 36.118 222.625C19.0095 202.133 10.4553 175.43 10.4553 142.517C10.4553 116.436 18.3759 92.5272 34.217 70.7926C50.0581 49.0579 72.5525 31.9811 101.7 19.5612C130.848 6.52041 164.115 0 201.5 0C242.963 0 280.505 8.71736 310.5 23.4871L330.5 0H390L0.000106812 508.591L-1.52588e-05 434.073ZM261.456 84.8345L164.283 213.791C160.978 212.672 157.859 211.58 154.927 210.515C138.452 203.685 124.512 194.991 113.106 184.434C102.334 173.256 96.9479 159.284 96.9479 142.517C96.9479 121.403 106.136 104.326 124.512 91.2859C142.888 78.245 167.6 71.7245 198.649 71.7245C223.357 71.7245 244.293 76.0942 261.456 84.8345ZM106.579 508.1L85.0001 527.221H23.2502L403 36.9871V121.987L395.266 134.348C396.796 142.627 397.79 151.25 398.248 160.215H375.285L301.497 255.745C306.783 257.747 311.786 259.747 316.507 261.747C339.952 271.062 359.912 285.345 376.387 304.596C393.495 323.846 402.366 348.997 403 380.046C403 407.991 395.08 433.141 379.239 455.496C363.397 477.852 340.902 495.55 311.755 508.591C283.241 521.011 250.291 527.221 212.906 527.221C173.437 527.221 137.995 520.847 106.579 508.1ZM154.23 446.407C170.975 452.466 190.217 455.496 211.956 455.496C244.905 455.496 270.884 448.355 289.894 434.073C308.903 419.789 318.408 401.781 318.408 380.046C318.408 357.691 308.269 341.234 287.993 330.677C279.087 325.768 268.042 320.918 254.858 316.129L154.23 446.407Z" fill="#595959"/>
</svg>
