<svg width="325" height="621" viewBox="0 0 325 621" fill="none" xmlns="http://www.w3.org/2000/svg">
<path fill-rule="evenodd" clip-rule="evenodd" d="M81.1574 101.676L71.9998 106L53.4998 117L43.5286 125.102C36.0304 132.047 29.4995 139.792 23.936 148.336C10.7947 168.048 4.224 190.576 4.224 215.92C4.224 246.427 11.0293 270.597 24.64 288.432C38.2507 306.267 54.6773 319.408 73.92 327.856C87.4412 333.792 104.322 339.844 124.564 346.012L193.647 543.212C185.085 544.665 175.917 545.392 166.144 545.392C130.005 545.392 102.549 536.475 83.776 518.64C65.0027 500.336 54.4427 479.216 52.096 455.28H0C0.938667 480.155 8.448 502.683 22.528 522.864C36.608 543.045 55.8507 558.768 80.256 570.032C105.131 581.296 133.76 586.928 166.144 586.928C180.902 586.928 194.739 585.685 207.656 583.2L220.739 620.546L257.056 603.779L154.122 309.953L140.609 306.282L125.273 300.75L110.532 294.185L102.673 290.088L98.6544 287.644C87.8184 281.604 78.4003 273.888 70.4 264.496C59.6053 251.824 54.208 235.163 54.208 214.512C54.208 198.81 57.4873 185.06 64.0458 173.263L64.0759 173.348L65.5 170.5L70.5 164L75.5 158.5L86.5 148.5L94.966 141.092L81.1574 101.676ZM265 558L257.91 561.219L239.852 509.672L247.5 503L255.5 495L264 487L271.5 479L271.434 478.801C273.518 471.197 274.56 463.122 274.56 454.576C274.56 433.456 269.163 416.56 258.368 403.888C253.12 397.499 247.262 391.943 240.795 387.218L240.781 387.178L239.798 386.5C239.4 386.217 239 385.938 238.598 385.662L238.603 385.676L234 382.5L226.781 378.178L213.281 371.178L199.281 365.178L187.904 361.386L67.2578 17L103.574 0.233521L133.606 85.9595C142.692 84.8345 152.13 84.272 161.92 84.272C207.445 84.272 244.053 95.536 271.744 118.064C299.904 140.123 316.096 168.752 320.32 203.952H266.816C263.531 183.771 252.501 165.936 233.728 150.448C214.955 134.491 189.611 126.512 157.696 126.512C154.375 126.512 151.115 126.613 147.918 126.814L218.122 327.211C231.805 331.885 243.813 336.558 254.144 341.232C273.856 349.68 290.517 362.821 304.128 380.656C317.739 398.491 324.544 422.427 324.544 452.464C324.544 475.461 318.443 497.285 306.24 517.936C302.429 524.385 298.046 530.445 293.091 536.116L287.5 541.5L281 547.5L273 553L265 558Z" fill="#595959"/>
</svg>
